<svg xmlns="http://www.w3.org/2000/svg" width="297mm" height="210mm" viewBox="0 0 297 210">
  <rect width="297" height="210" fill="#fff"/>
  <rect x="8" y="8" width="18" height="18" fill="#000"/><rect x="14.00" y="14.00" width="3" height="3" fill="#fff"/><rect x="14.00" y="17.00" width="3" height="3" fill="#fff"/><rect x="20.00" y="17.00" width="3" height="3" fill="#fff"/><rect x="11.00" y="20.00" width="3" height="3" fill="#fff"/><rect x="14.00" y="20.00" width="3" height="3" fill="#fff"/><rect x="20.00" y="20.00" width="3" height="3" fill="#fff"/>
  <rect x="271" y="8" width="18" height="18" fill="#000"/><rect x="277.00" y="14.00" width="3" height="3" fill="#fff"/><rect x="277.00" y="17.00" width="3" height="3" fill="#fff"/><rect x="280.00" y="17.00" width="3" height="3" fill="#fff"/><rect x="283.00" y="17.00" width="3" height="3" fill="#fff"/><rect x="274.00" y="20.00" width="3" height="3" fill="#fff"/><rect x="280.00" y="20.00" width="3" height="3" fill="#fff"/>
  <rect x="8" y="184" width="18" height="18" fill="#000"/><rect x="14.00" y="190.00" width="3" height="3" fill="#fff"/><rect x="11.00" y="193.00" width="3" height="3" fill="#fff"/><rect x="17.00" y="193.00" width="3" height="3" fill="#fff"/><rect x="20.00" y="193.00" width="3" height="3" fill="#fff"/><rect x="14.00" y="196.00" width="3" height="3" fill="#fff"/><rect x="20.00" y="196.00" width="3" height="3" fill="#fff"/>
  <rect x="271" y="184" width="18" height="18" fill="#000"/><rect x="277.00" y="190.00" width="3" height="3" fill="#fff"/><rect x="274.00" y="193.00" width="3" height="3" fill="#fff"/><rect x="277.00" y="193.00" width="3" height="3" fill="#fff"/><rect x="283.00" y="193.00" width="3" height="3" fill="#fff"/><rect x="277.00" y="196.00" width="3" height="3" fill="#fff"/><rect x="280.00" y="196.00" width="3" height="3" fill="#fff"/>
  <path d="M177.48 62.68 L189.49 64.26 L208.04 68.39 L220.24 72.70 L228.81 76.93 L236.10 82.05 L239.72 85.62 L243.51 90.93 L246.34 95.92 L252.09 102.27 L252.79 104.96 L254.14 106.31 L254.21 108.13 L253.83 109.27 L250.21 112.78 L238.54 121.62 L227.54 128.11 L219.65 131.58 L214.15 133.25 L208.19 134.50 L190.93 136.24 L181.24 138.52 L167.87 139.09 L161.80 139.01 L160.68 137.86 L161.74 136.91 L166.75 134.37 L167.18 133.59 L166.52 133.25 L157.68 131.69 L140.61 126.93 L129.27 125.62 L125.47 124.77 L120.71 122.64 L114.28 118.89 L98.08 107.07 L95.54 105.89 L93.38 105.48 L85.37 107.73 L60.35 122.42 L48.00 128.73 L43.87 130.23 L51.55 123.69 L56.75 118.13 L66.18 104.96 L68.49 100.81 L69.08 98.95 L48.65 76.23 L45.29 71.98 L43.74 69.34 L45.50 68.49 L48.04 68.28 L50.79 68.58 L55.36 69.80 L61.53 72.24 L87.06 84.55 L90.49 85.79 L97.61 87.10 L99.20 86.81 L101.23 85.71 L110.32 78.28 L120.33 73.99 L130.01 70.54 L142.70 67.12 L152.75 65.04 L161.68 63.82 L176.35 62.68 Z" fill="#fff" stroke="#8a8a8a" stroke-width="1.6" stroke-linejoin="round"/>
  <path d="M246.03 95.38 L247.74 99.28 L250.54 105.68 L246.94 113.68 L245.86 116.07" fill="none" stroke="#c2c2c2" stroke-width="0.55" stroke-dasharray="2.2 2" stroke-linecap="round" stroke-linejoin="round"/>
  <path d="M178.00 138.66 L175.14 137.48 L168.34 134.68 L166.90 134.09" fill="none" stroke="#c2c2c2" stroke-width="0.55" stroke-dasharray="2.2 2" stroke-linecap="round" stroke-linejoin="round"/>
  <path d="M98.77 107.58 L97.74 105.28 L94.14 97.28 L98.14 88.48 L98.87 86.87" fill="none" stroke="#c2c2c2" stroke-width="0.55" stroke-dasharray="2.2 2" stroke-linecap="round" stroke-linejoin="round"/>
  <path d="M194.18 98.67 L175.78 87.89 L185.51 111.15 L188.26 112.42" fill="none" stroke="#c2c2c2" stroke-width="0.55" stroke-dasharray="2.2 2" stroke-linecap="round" stroke-linejoin="round"/>
  <text x="148.5" y="197" text-anchor="middle" font-family="Segoe UI, sans-serif" font-size="7" font-weight="600" fill="#444">Цезио</text>
</svg>
