<svg xmlns="http://www.w3.org/2000/svg" viewBox="0 0 36 36" width="432" height="432">
<title>Blue whale</title>
<defs>
  <g id="sa-art" transform="translate(36,0) scale(-1,1)">
<path fill="#3B88C3" d="M36 7.001c-2 3-2-1-5 2-3-2-3 3-6 0 .899 2.699 3.419 4.574 6.1 4.926-.277 1.789.202 3.946-2.1 6.073-2.008 1.857-3.023.312-8-2.999-3-1.996-5-4-10-3C5.117 15.178 0 20 0 22s3 13.969 21 13.969c2 0 5.243-.664 8-2.969 5.955-4.978 5.882-15.349 4.58-19.456C35.36 12.417 36 9.394 36 7.001z"/><path fill="#55ACEE" d="M30.214 31.812c.149-.165.289-.338.429-.511 1.879-2.351 2.902-5.349 3.355-8.29C31.999 28.008 30.992 33 20 33 9 33 5 20 0 22c0 2 3 13.969 21 13.969 2 0 5.243-.664 8-2.969a12.037 12.037 0 0 0 1.214-1.188z"/><circle cx="6.5" cy="21.5" r="1.5" fill="#292F33"/>
  </g>
  <filter id="sa-alpha">
    <feColorMatrix type="matrix" values="0 0 0 0 1  0 0 0 0 1  0 0 0 0 1  0 0 0 1 0"/>
  </filter>
  <filter id="sa-soft" x="-50%" y="-50%" width="200%" height="200%">
    <feGaussianBlur stdDeviation="4.32"/>
  </filter>
  <mask id="sa-mask">
    <g filter="url(#sa-alpha)"><use href="#sa-art"/></g>
  </mask>
  <linearGradient id="sa-vol" x1="0.2" y1="0" x2="0.5" y2="1">
    <stop offset="0"    stop-color="#ffffff" stop-opacity="0.34"/>
    <stop offset="0.42" stop-color="#ffffff" stop-opacity="0"/>
    <stop offset="0.68" stop-color="#000000" stop-opacity="0"/>
    <stop offset="1"    stop-color="#000000" stop-opacity="0.34"/>
  </linearGradient>
</defs>
<use href="#sa-art"/>
<g mask="url(#sa-mask)">
  <rect x="0" y="0" width="36" height="36" fill="url(#sa-vol)"/>
  <ellipse cx="15.12" cy="10.08"
           rx="9.36" ry="5.76"
           fill="#ffffff" opacity="0.22" filter="url(#sa-soft)"/>
</g>
</svg>
