<svg xmlns="http://www.w3.org/2000/svg" viewBox="0 0 254 122" width="762" height="366">
<title>Moray eel</title>
<defs><clipPath id="c"><path d="M10,88 C34,102 58,96 78,78 C100,58 118,32 148,26 C180,20 210,32 228,52 C242,68 246,82 244,94 C232,98 216,92 206,80 C192,64 172,56 154,60 C132,66 118,88 96,102 C70,118 34,114 10,100 Z"/></clipPath><linearGradient id="vol" x1="0.15" y1="0" x2="0.55" y2="1"><stop offset="0" stop-color="#9abf83"/><stop offset="0.45" stop-color="#6ea34e"/><stop offset="1" stop-color="#4d7237"/></linearGradient><filter id="soft" x="-60%" y="-60%" width="220%" height="220%"><feGaussianBlur stdDeviation="8.5"/></filter></defs>
<path d="M96,50 C120,24 152,12 186,16 C176,26 152,30 132,42 C118,50 108,58 100,66 Z" fill="#4e7c3e"/>
      <path d="M10,88 C34,102 58,96 78,78 C100,58 118,32 148,26 C180,20 210,32 228,52 C242,68 246,82 244,94 C232,98 216,92 206,80 C192,64 172,56 154,60 C132,66 118,88 96,102 C70,118 34,114 10,100 Z" fill="url(#vol)"/>
      <g clip-path="url(#c)" opacity=".35">
        <circle cx="60" cy="94" r="8" fill="#33562a"/>
        <circle cx="106" cy="76" r="7" fill="#33562a"/>
        <circle cx="150" cy="44" r="7" fill="#33562a"/>
        <circle cx="196" cy="52" r="6" fill="#33562a"/>
        <circle cx="222" cy="76" r="6" fill="#33562a"/>
      </g>
      <path d="M228,74 C236,72 244,74 246,80 C238,84 228,82 224,78 Z" fill="#f0e4d0"/>
      <circle cx="220" cy="54" r="8" fill="#fff"/><circle cx="221.44" cy="54" r="3.84" fill="#17202a"/><circle cx="220.16" cy="51.28" r="1.52" fill="#fff"/>
<g clip-path="url(#c)">
  <path d="M10,88 C34,102 58,96 78,78 C100,58 118,32 148,26 C180,20 210,32 228,52 C242,68 246,82 244,94 C232,98 216,92 206,80 C192,64 172,56 154,60 C132,66 118,88 96,102 C70,118 34,114 10,100 Z" fill="none" stroke="#ffffff" stroke-width="6.7" opacity=".28"/>
  <ellipse cx="117" cy="32"
           rx="76" ry="18"
           fill="#ffffff" opacity=".26" filter="url(#soft)"/>
  <ellipse cx="127" cy="129"
           rx="157" ry="41"
           fill="#314923" opacity=".42" filter="url(#soft)"/>
</g>
</svg>
